<svg width="1em" height="1em" viewBox="0 0 18 18" fill="none" xmlns="http://www.w3.org/2000/svg">
<path d="M14.6568 16.7782C15.2426 17.3639 16.1924 17.3639 16.7782 16.7782C17.3639 16.1924 17.3639 15.2426 16.7782 14.6568L11.1213 8.99998L16.7782 3.34313C17.3639 2.75734 17.3639 1.8076 16.7782 1.22181C16.1924 0.636024 15.2426 0.636025 14.6568 1.22181L8.99998 6.87866L3.34313 1.22181C2.75734 0.636024 1.8076 0.636024 1.22181 1.22181C0.636024 1.8076 0.636024 2.75734 1.22181 3.34313L6.87866 8.99998L1.22181 14.6568C0.636024 15.2426 0.636024 16.1924 1.22181 16.7782C1.8076 17.3639 2.75734 17.3639 3.34313 16.7782L8.99998 11.1213L14.6568 16.7782Z" fill="currentColor"/>
</svg>
