<svg width="1em" height="1em" viewBox="0 0 20 19" fill="none" xmlns="http://www.w3.org/2000/svg">
<path d="M17.2516 17.2376L17.2517 17.2375L17.1697 17.1425L17.1678 17.1404L17.1679 17.1404L16.6203 16.4289C16.1027 16.5673 15.5602 16.5869 15.0337 16.486C14.4961 16.383 13.9895 16.1571 13.5536 15.826C13.1177 15.495 12.7642 15.0676 12.5206 14.5774C12.277 14.0872 12.15 13.5473 12.1495 12.9999V12.9999C12.1495 12.0584 12.5235 11.1554 13.1893 10.4896C13.855 9.82389 14.758 9.44988 15.6995 9.44988C16.381 9.44991 17.048 9.64608 17.621 10.015C18.194 10.3838 18.6487 10.9098 18.9308 11.5301C19.2129 12.1504 19.3106 12.8388 19.212 13.5131C19.1155 14.1739 18.8346 14.7937 18.402 15.3017L18.8311 15.8593L17.2516 17.2376ZM17.2516 17.2376L17.254 17.24M17.2516 17.2376L17.254 17.24M17.254 17.24C17.442 17.4302 17.6956 17.5414 17.9628 17.551C18.2301 17.5606 18.4909 17.4678 18.6921 17.2917C18.8934 17.1155 19.0198 16.8692 19.0456 16.603C19.0714 16.3369 18.9947 16.0709 18.8311 15.8594L17.254 17.24ZM11.8221 0.954898V0.954878L11.8207 0.954959C11.1474 0.993275 10.5067 1.25504 9.99945 1.69812C9.46477 1.23277 8.76526 0.949878 7.99951 0.949878H3.99951C3.1906 0.949878 2.41482 1.27122 1.84284 1.8432C1.27085 2.41519 0.949512 3.19097 0.949512 3.99988V12.9999C0.949512 13.6631 1.08013 14.3197 1.33392 14.9324C1.58771 15.5451 1.95969 16.1018 2.42862 16.5708C2.89756 17.0397 3.45427 17.4117 4.06696 17.6655C4.67966 17.9193 5.33634 18.0499 5.99951 18.0499H7.99951C8.80842 18.0499 9.5842 17.7285 10.1562 17.1566C10.7282 16.5846 11.0495 15.8088 11.0495 14.9999V4.00137L11.0563 3.88733C11.0838 3.65678 11.1948 3.44427 11.3684 3.28996C11.5422 3.13534 11.7668 3.04991 11.9995 3.04988H15.998L16.1121 3.0567C16.3426 3.08421 16.5551 3.1952 16.7094 3.36873C16.8641 3.54261 16.9495 3.7672 16.9495 3.99988V8.12488H16.9494L16.9496 8.12786L16.9566 8.24486L16.9565 8.24487L16.9569 8.24778C16.9885 8.51353 17.1204 8.75719 17.3256 8.92896C17.5308 9.10073 17.7939 9.18765 18.061 9.17196C18.3282 9.15628 18.5793 9.03917 18.763 8.84457C18.9467 8.64997 19.0492 8.39256 19.0495 8.12493V8.12488L19.0495 3.99988L19.0495 3.99846L19.0445 3.82246L19.0445 3.82246L19.0444 3.82094C18.9988 3.04432 18.6581 2.31449 18.0921 1.78078C17.5261 1.24708 16.7775 0.949835 15.9995 0.949878H11.9995V0.949858L11.9981 0.949898L11.8221 0.954898ZM3.99951 3.04988H7.99951C8.25147 3.04988 8.4931 3.14997 8.67126 3.32813C8.84942 3.50629 8.94951 3.74792 8.94951 3.99988V14.9999C8.94951 15.2518 8.84942 15.4935 8.67126 15.6716C8.4931 15.8498 8.25147 15.9499 7.99951 15.9499H5.99951C5.21712 15.9499 4.46678 15.6391 3.91355 15.0858C3.36031 14.5326 3.04951 13.7823 3.04951 12.9999V3.99988C3.04951 3.74792 3.1496 3.50629 3.32776 3.32813C3.50592 3.14997 3.74756 3.04988 3.99951 3.04988ZM14.6742 11.9746C14.9461 11.7026 15.3149 11.5499 15.6995 11.5499C16.0841 11.5499 16.4529 11.7026 16.7248 11.9746C16.9967 12.2465 17.1495 12.6153 17.1495 12.9999C17.1495 13.3844 16.9967 13.7533 16.7248 14.0252C16.4529 14.2971 16.0841 14.4499 15.6995 14.4499C15.3149 14.4499 14.9461 14.2971 14.6742 14.0252C14.4023 13.7533 14.2495 13.3844 14.2495 12.9999C14.2495 12.6153 14.4023 12.2465 14.6742 11.9746Z" fill="currentColor" stroke="currentColor" stroke-width="0.1"/>
</svg>
