<svg width="1em" height="1em" viewBox="0 0 22 22" fill="none" xmlns="http://www.w3.org/2000/svg">
<path fill-rule="evenodd" clip-rule="evenodd" d="M5.62333 2.24915L6.05683 3H1.6C0.716344 3 0 3.67158 0 4.5C0 5.32843 0.716344 6 1.6 6H3.5C3.50001 8.45276 4.59062 10.7127 6 12.5C4.89676 13.1383 3.36624 13.5 2 13.5C1.17157 13.5 0.5 14.1715 0.5 15C0.5 15.8284 1.17157 16.5 2 16.5C4.23087 16.5 6.29925 15.8042 8 14.6179C9.40545 15.5983 11.0619 16.2436 12.8537 16.4381L11.1582 19.8291C10.7877 20.5701 11.0881 21.4711 11.829 21.8416C12.57 22.2121 13.471 21.9117 13.8415 21.1708L14.4269 20H18.5728L19.1582 21.1708C19.5287 21.9117 20.4297 22.2121 21.1707 21.8416C21.9116 21.4711 22.212 20.5701 21.8415 19.8291L17.8415 11.8291C17.5874 11.321 17.068 11 16.4998 11C15.9317 11 15.4123 11.321 15.1582 11.8291L14.3071 13.5314C14.2079 13.5108 14.1052 13.5 14 13.5C12.6338 13.5 11.1032 13.1383 10 12.5C11.4094 10.7127 12.5 8.45276 12.5 6H14.4C15.2837 6 16 5.32843 16 4.5C16 3.67158 15.2837 3 14.4 3H9.52094L8.22141 0.749152C7.80719 0.0317129 6.88981 -0.2141 6.17237 0.200114C5.45493 0.614327 5.20912 1.53171 5.62333 2.24915ZM6.5 6L9.5 6C9.49999 7.68872 8.94186 9.24708 8 10.5007C7.05814 9.24708 6.50001 7.68872 6.5 6ZM16.4998 15.8541L17.5728 18H15.4269L16.4998 15.8541Z" fill="currentColor"/>
</svg>
