<svg width="1em" height="1em" viewBox="0 0 20 18" fill="none" xmlns="http://www.w3.org/2000/svg">
<path d="M3.1 15.5003C3.10141 15.1927 2.99593 14.9295 2.78371 14.7173C2.57146 14.505 2.30792 14.3993 1.99976 14.4C1.69198 14.4007 1.42897 14.5063 1.21741 14.7172C1.00565 14.9282 0.9 15.1914 0.9 15.5L0.9 16.5L0.9 16.5002L2 17.5L1.99976 17.6C2.30782 17.6007 2.57106 17.4954 2.78271 17.2837C2.99435 17.0721 3.1 16.8086 3.1 16.5V15.5003ZM3.1 15.5003C3.1 15.5003 3.1 15.5004 3.1 15.5005L3 15.5H3.1V15.5003ZM7.1 11.0003C7.10141 10.6927 6.99593 10.4295 6.78371 10.2173C6.57146 10.005 6.30792 9.89926 5.99976 9.89999C5.69198 9.90072 5.42897 10.0063 5.21741 10.2172C5.00565 10.4282 4.9 10.6914 4.9 11L4.9 16.5L4.9 16.5002L6 17.5L5.99976 17.6C6.30782 17.6007 6.57106 17.4954 6.78271 17.2837C6.99435 17.0721 7.1 16.8086 7.1 16.5V11.0003ZM7.1 11.0003C7.1 11.0003 7.1 11.0004 7.1 11.0005L7 11H7.1V11.0003ZM8.9 16.5002L8.9 16.5L8.9 13C8.9 12.6914 9.00565 12.4282 9.21741 12.2172C9.42897 12.0063 9.69198 11.9007 9.99976 11.9C10.3079 11.8993 10.5715 12.005 10.7837 12.2173C10.9959 12.4294 11.1014 12.6926 11.1 13M8.9 16.5002L11.1 13.0005C11.1 13.0003 11.1 13.0002 11.1 13M8.9 16.5002C8.90073 16.808 9.00634 17.071 9.21717 17.2826C9.42814 17.4943 9.69129 17.5999 9.99976 17.6M8.9 16.5002L9.99976 17.6M11.1 13V16.5C11.1 16.8086 10.9944 17.0721 10.7827 17.2837C10.5711 17.4954 10.3078 17.6007 9.99976 17.6M11.1 13L9.99976 17.6M9.99976 17.6C9.99984 17.6 9.99992 17.6 10 17.6V17.5L9.99976 17.6ZM12.9 16.5002L12.9 16.5V11.5C12.9 11.1914 13.0057 10.9282 13.2174 10.7172C13.429 10.5063 13.692 10.4007 13.9998 10.4C14.3079 10.3993 14.5715 10.505 14.7837 10.7173C14.9959 10.9294 15.1014 11.1926 15.1 11.5M12.9 16.5002L15.1 11.5005C15.1 11.5003 15.1 11.5002 15.1 11.5M12.9 16.5002C12.9007 16.808 13.0063 17.071 13.2172 17.2826C13.4281 17.4943 13.6913 17.5999 13.9998 17.6M12.9 16.5002L13.9998 17.6M15.1 11.5V16.5C15.1 16.8086 14.9944 17.0721 14.7827 17.2837C14.5711 17.4954 14.3078 17.6007 13.9998 17.6M15.1 11.5L13.9998 17.6M13.9998 17.6C13.9998 17.6 13.9999 17.6 14 17.6V17.5L13.9998 17.6ZM17.9998 17.6C18.3078 17.6007 18.5711 17.4954 18.7827 17.2837C18.9944 17.0721 19.1 16.8086 19.1 16.5L19.1 7.50046L19 7.49999H19.1V7.50005C19.1014 7.19258 18.9959 6.92945 18.7837 6.71728C18.5715 6.50503 18.3079 6.39926 17.9998 6.39999C17.692 6.40072 17.429 6.50633 17.2174 6.71716C17.0057 6.92818 16.9 7.19142 16.9 7.49999V16.5L16.9 16.5002C16.9007 16.808 17.0063 17.071 17.2172 17.2826C17.4281 17.4943 17.6913 17.5999 17.9998 17.6ZM17.9998 17.6L18 17.5V17.6C17.9999 17.6 17.9998 17.6 17.9998 17.6ZM10.5043 7.9707L10.5042 7.97076L10.5073 7.97359C10.715 8.16461 10.9456 8.31277 11.1988 8.41741C11.4531 8.52251 11.7205 8.57499 12 8.57499C12.2795 8.57499 12.5504 8.52252 12.8121 8.41784C13.0742 8.31301 13.3024 8.16398 13.4957 7.9707L18.7705 2.69596C18.7705 2.69592 18.7705 2.69588 18.7706 2.69584C18.9739 2.49392 19.0793 2.24004 19.088 1.9409C19.0967 1.63999 18.9999 1.37693 18.7987 1.15742L18.7988 1.15736L18.7959 1.15452C18.5791 0.936207 18.3176 0.8208 18.0159 0.812033C17.7122 0.80321 17.4482 0.910404 17.2293 1.12928L12 6.35857L9.49717 3.85574C9.30419 3.64633 9.0747 3.49217 8.80967 3.39419C8.54788 3.29742 8.27772 3.24929 7.99975 3.24999C7.72212 3.25069 7.45622 3.29875 7.20269 3.39443C6.9462 3.49123 6.71338 3.64519 6.50429 3.85428L1.22929 9.12928L1.22903 9.12954C1.0274 9.33264 0.922462 9.58654 0.91305 9.88484C0.903572 10.1852 1.00006 10.448 1.20128 10.6676L1.20122 10.6676L1.20429 10.6707C1.42234 10.8888 1.68401 11.0042 1.98509 11.0129C2.28817 11.0218 2.55189 10.9145 2.77071 10.6957L8 5.46641L10.5043 7.9707Z" fill="currentColor" stroke="currentColor" stroke-width="0.2"/>
</svg>
