<svg width="1em" height="1em" viewBox="0 0 22 22" fill="none" xmlns="http://www.w3.org/2000/svg">
<path fill-rule="evenodd" clip-rule="evenodd" d="M8.53241 19.1363C8.4546 19.0175 8.37657 18.8925 8.29884 18.7609C7.75087 17.8336 7.22862 16.6026 6.88941 15H3.49811C4.55093 16.9704 6.35735 18.4775 8.53241 19.1363ZM2.63194 12.5H6.54964C6.51729 12.024 6.5 11.5243 6.5 11C6.5 10.4757 6.51729 9.97602 6.54964 9.50001H2.63193C2.54524 9.98692 2.5 10.4882 2.5 11C2.5 11.5118 2.54524 12.0131 2.63194 12.5ZM3.49809 7.00001H6.88941C7.22862 5.39739 7.75087 4.16644 8.29884 3.2391C8.37658 3.10754 8.45461 2.98248 8.53243 2.8637C6.35735 3.52249 4.55092 5.02958 3.49809 7.00001ZM13.4676 2.8637C13.5454 2.98248 13.6234 3.10754 13.7012 3.2391C14.2491 4.16644 14.7714 5.39739 15.1106 7.00001H18.5019C17.4491 5.02958 15.6426 3.52249 13.4676 2.8637ZM19.3681 9.50001H15.4504C15.4827 9.97602 15.5 10.4757 15.5 11C15.5 11.5243 15.4827 12.024 15.4504 12.5H19.3681C19.4548 12.0131 19.5 11.5118 19.5 11C19.5 10.4882 19.4548 9.98692 19.3681 9.50001ZM18.5019 15H15.1106C14.7714 16.6026 14.2491 17.8336 13.7012 18.7609C13.6234 18.8925 13.5454 19.0175 13.4676 19.1363C15.6426 18.4775 17.4491 16.9704 18.5019 15ZM22 11C22 17.0751 17.0751 22 11 22C4.92487 22 0 17.0751 0 11C0 4.92487 4.92487 0 11 0C17.0751 0 22 4.92487 22 11ZM11.5488 4.51092C11.3574 4.18691 11.1691 3.92514 11 3.71783C10.8309 3.92514 10.6426 4.18691 10.4512 4.51092C10.1024 5.1012 9.73423 5.9131 9.45602 7.00001H12.544C12.2658 5.9131 11.8976 5.1012 11.5488 4.51092ZM9 11C9 11.5326 9.0199 12.032 9.05617 12.5H12.9438C12.9801 12.032 13 11.5326 13 11C13 10.4674 12.9801 9.968 12.9438 9.50001H9.05617C9.0199 9.968 9 10.4674 9 11ZM9.45602 15C9.73423 16.0869 10.1024 16.8988 10.4512 17.4891C10.6426 17.8131 10.8309 18.0749 11 18.2822C11.1691 18.0749 11.3574 17.8131 11.5488 17.4891C11.8976 16.8988 12.2658 16.0869 12.544 15H9.45602Z" fill="currentColor"/>
</svg>
