<svg width="1em" height="1em" viewBox="0 0 22 20" fill="none" xmlns="http://www.w3.org/2000/svg">
<path d="M18.8157 8.75284C18.8157 8.75286 18.8157 8.75287 18.8157 8.75289V8.75305V8.75284ZM18.8157 8.75284C18.8152 8.56544 18.7424 8.38546 18.6123 8.25045L18.6125 8.2503L18.6066 8.24478C18.4707 8.11807 18.2926 8.04621 18.1068 8.04309V8.04307H18.1043H11.71M18.8157 8.75284L11.71 8.04307M11.71 8.04307V6.24733C12.3453 6.0908 12.914 5.73224 13.3294 5.22397C13.7709 4.68389 14.0123 4.00789 14.0129 3.31032H14.0129L14.0128 3.30687C13.9952 2.51665 13.6689 1.76473 13.1038 1.21209C12.5387 0.659445 11.7797 0.35 10.9893 0.35C10.1989 0.35 9.43987 0.659445 8.87476 1.21209C8.30966 1.76473 7.98337 2.51665 7.96575 3.30687L7.96571 3.30687V3.31021C7.96571 4.73994 8.92978 5.93873 10.2697 6.24859L10.2657 6.45001C10.2619 6.64397 10.2572 6.90187 10.2525 7.15947L10.2399 7.86746L10.2369 8.04164H3.87389C3.78024 8.0404 3.68728 8.05781 3.60042 8.09286C3.51323 8.12805 3.43395 8.1803 3.36724 8.24655M11.71 8.04307L3.36724 8.24655M3.36724 8.24655C3.36728 8.24652 3.36731 8.24648 3.36735 8.24645L3.47286 8.35307L3.36714 8.24666C3.36717 8.24662 3.36721 8.24659 3.36724 8.24655ZM3.36724 8.24655C3.23279 8.37966 3.15455 8.55929 3.14864 8.74839L3.14856 8.74839L3.14857 8.75348L3.16109 13.3476C1.97806 13.6072 0.85 14.8276 0.85 16.2788C0.85 17.9445 2.20578 19.3002 3.87286 19.3002C5.54132 19.3002 6.89714 17.9446 6.89714 16.2788C6.89714 14.8759 5.88077 13.6613 4.70714 13.3529V9.67164H10.2729V13.2616C10.2729 13.2915 10.275 13.3201 10.2788 13.3476C9.64868 13.4995 9.08255 13.8506 8.66582 14.3508C8.21483 14.892 7.96719 15.5739 7.96572 16.2785H7.96559L7.96583 16.2846C7.99602 17.0662 8.32777 17.8058 8.89148 18.3482C9.45519 18.8905 10.207 19.1935 10.9893 19.1935C11.7715 19.1935 12.5234 18.8905 13.0871 18.3482C13.6508 17.8058 13.9826 17.0662 14.0127 16.2846L14.0129 16.2846V16.2788C14.0129 14.8552 13.0203 13.6643 11.6914 13.347C11.6949 13.3192 11.6968 13.2913 11.6971 13.2632H11.6971V13.2616V9.67164H17.2686V13.3536C16.0005 13.6892 15.08 14.8755 15.08 16.2788H15.0799L15.0801 16.2846C15.1103 17.0662 15.4421 17.8058 16.0058 18.3482C16.5695 18.8905 17.3213 19.1935 18.1036 19.1935C18.8858 19.1935 19.6377 18.8905 20.2014 18.3482C20.7651 17.8058 21.0968 17.0662 21.127 16.2846L21.1271 16.2846V16.2788C21.1271 14.83 20.0315 13.5983 18.8174 13.3322C18.8175 13.3074 18.8176 13.2794 18.8178 13.2483C18.8183 13.118 18.8186 12.9332 18.8187 12.7122C18.8191 12.2702 18.8188 11.6829 18.8184 11.0963C18.8179 10.5098 18.8173 9.92392 18.8167 9.48468L18.816 8.95405L18.8158 8.80543L18.8157 8.76627L18.8157 8.75623L18.8157 8.7545V8.75441L18.8157 8.75369L18.8157 8.75307L3.36724 8.24655ZM16.9583 17.3604C16.6638 17.0659 16.498 16.6668 16.4971 16.2504C16.5144 15.8451 16.6874 15.462 16.9801 15.1809C17.2736 14.8992 17.6646 14.7418 18.0714 14.7418C18.4782 14.7418 18.8693 14.8992 19.1627 15.1809C19.4554 15.462 19.6284 15.8451 19.6457 16.2504C19.6449 16.6668 19.4791 17.0659 19.1846 17.3604C18.8893 17.6556 18.4889 17.8215 18.0714 17.8215C17.6539 17.8215 17.2535 17.6556 16.9583 17.3604ZM10.98 17.8402C10.1126 17.8402 9.40714 17.1357 9.40714 16.2702C9.40714 15.8531 9.57285 15.453 9.86782 15.158C10.1628 14.8631 10.5629 14.6974 10.98 14.6974C11.3971 14.6974 11.7972 14.8631 12.0922 15.158C12.3871 15.453 12.5529 15.8531 12.5529 16.2702C12.5529 17.1357 11.8474 17.8402 10.98 17.8402ZM10.9986 1.75307C11.8639 1.75307 12.5688 2.45648 12.57 3.31804C12.5577 3.72601 12.3871 4.11322 12.0943 4.39768C11.801 4.68265 11.4082 4.84205 10.9993 4.84205C10.5904 4.84205 10.1975 4.68265 9.90424 4.39768C9.61146 4.11322 9.44089 3.72601 9.42857 3.31804C9.42975 2.45498 10.1333 1.75307 10.9986 1.75307ZM3.82714 17.8045C2.96054 17.8045 2.25546 17.1012 2.25429 16.2352C2.26662 15.8265 2.43749 15.4386 2.73081 15.1536C3.02463 14.8681 3.41818 14.7084 3.82786 14.7084C4.23754 14.7084 4.63108 14.8681 4.92491 15.1536C5.21822 15.4386 5.3891 15.8265 5.40143 16.2352C5.40025 17.1011 4.6939 17.8045 3.82714 17.8045Z" fill="currentColor" stroke="currentColor" stroke-width="0.3"/>
</svg>
