<svg width="1em" height="1em" viewBox="0 0 22 16" fill="none" xmlns="http://www.w3.org/2000/svg">
<path d="M2.88959 5.27104C2.88949 4.48021 3.08597 3.70176 3.46135 3.00571C3.83673 2.30965 4.37925 1.71782 5.0401 1.28344C5.70095 0.849061 6.45941 0.585761 7.24726 0.517222C8.03511 0.448682 8.82764 0.577052 9.55358 0.890786C10.2795 1.20452 10.9161 1.69378 11.406 2.31455C11.896 2.93533 12.2239 3.66816 12.3604 4.44712C12.4968 5.22609 12.4376 6.02675 12.1878 6.77712C11.9381 7.52748 11.5058 8.204 10.9297 8.74583C12.0158 9.2731 12.9587 10.0544 13.6787 11.0235C14.3987 11.9927 14.8744 13.1211 15.0656 14.3131C15.0867 14.4458 15.0814 14.5813 15.0501 14.7119C15.0187 14.8425 14.962 14.9656 14.8831 15.0743C14.8041 15.183 14.7046 15.275 14.5901 15.3452C14.4756 15.4154 14.3483 15.4624 14.2157 15.4834C14.083 15.5045 13.9475 15.4992 13.8169 15.4678C13.6863 15.4365 13.5632 15.3797 13.4545 15.3008C13.3458 15.2219 13.2538 15.1223 13.1836 15.0078C13.1134 14.8933 13.0664 14.7661 13.0454 14.6335C12.8409 13.3525 12.1865 12.1864 11.1996 11.3445C10.2127 10.5026 8.95797 10.0401 7.66077 10.0401C6.36357 10.0401 5.10886 10.5026 4.12196 11.3445C3.13506 12.1864 2.48061 13.3525 2.27615 14.6335C2.25502 14.7661 2.20798 14.8933 2.1377 15.0078C2.06742 15.1223 1.97528 15.2218 1.86654 15.3006C1.75781 15.3795 1.6346 15.4362 1.50397 15.4674C1.37333 15.4987 1.23781 15.5039 1.10516 15.4827C0.972511 15.4616 0.845318 15.4146 0.730848 15.3443C0.616377 15.274 0.51687 15.1819 0.438008 15.0731C0.359146 14.9644 0.302473 14.8412 0.271226 14.7106C0.239978 14.5799 0.234768 14.4444 0.255892 14.3118C0.446429 13.1198 0.921941 11.9915 1.64201 11.0227C2.36208 10.0539 3.30541 9.27327 4.39183 8.74719C3.91744 8.30098 3.53942 7.76237 3.28107 7.16454C3.02271 6.5667 2.88948 5.92231 2.88959 5.27104ZM15.1583 3.22625C15.9504 3.2268 16.7252 3.45726 17.3888 3.88964C18.0524 4.32203 18.5762 4.93775 18.8967 5.66207C19.2171 6.38639 19.3204 7.18815 19.194 7.97003C19.0676 8.75192 18.717 9.4803 18.1846 10.0668C19.0149 10.478 19.7525 11.0543 20.3525 11.7602C20.9525 12.4662 21.4023 13.2871 21.6744 14.1727C21.7285 14.3446 21.7361 14.5277 21.6965 14.7034C21.6569 14.8792 21.5715 15.0413 21.4489 15.1734C21.3264 15.3054 21.1711 15.4027 20.9989 15.4554C20.8266 15.5081 20.6434 15.5142 20.468 15.4732C20.2926 15.4326 20.131 15.3465 19.9996 15.2234C19.8682 15.1004 19.7716 14.9449 19.7196 14.7725C19.4749 13.9823 19.0296 13.2691 18.427 12.7024C17.8245 12.1357 17.0853 11.7348 16.2816 11.539C16.0584 11.4851 15.8598 11.3576 15.7178 11.1771C15.5759 10.9966 15.4989 10.7735 15.4991 10.5439V10.064C15.499 9.87369 15.552 9.68709 15.6522 9.52524C15.7524 9.3634 15.8958 9.23274 16.0662 9.14797C16.4795 8.94315 16.8114 8.60463 17.008 8.18739C17.2046 7.77015 17.2543 7.29869 17.1492 6.8496C17.044 6.40051 16.7901 6.00017 16.4287 5.7136C16.0673 5.42703 15.6196 5.27107 15.1583 5.27104C14.8872 5.27104 14.6271 5.16332 14.4354 4.97159C14.2437 4.77985 14.136 4.5198 14.136 4.24864C14.136 3.97749 14.2437 3.71744 14.4354 3.5257C14.6271 3.33396 14.8872 3.22625 15.1583 3.22625ZM7.66077 2.54465C7.2977 2.53644 6.93665 2.60085 6.59881 2.73409C6.26097 2.86734 5.95316 3.06674 5.69344 3.32059C5.43373 3.57443 5.22735 3.8776 5.08641 4.21231C4.94548 4.54701 4.87283 4.9065 4.87274 5.26966C4.87265 5.63283 4.94512 5.99235 5.08588 6.32712C5.22665 6.6619 5.43288 6.96517 5.69247 7.21915C5.95206 7.47312 6.25977 7.67268 6.59754 7.80609C6.93531 7.93951 7.29633 8.0041 7.65941 7.99607C8.37176 7.98032 9.04964 7.68632 9.54794 7.17701C10.0462 6.6677 10.3253 5.98355 10.3255 5.27103C10.3257 4.5585 10.0469 3.87421 9.54889 3.36465C9.05085 2.8551 8.37312 2.56076 7.66077 2.54465Z" fill="currentColor"/>
</svg>
