<svg width="1em" height="1.2em" viewBox="0 0 18 24" fill="none" xmlns="http://www.w3.org/2000/svg">
<path d="M13.525 4H16C16.2652 4 16.5196 4.10536 16.7071 4.29289C16.8946 4.48043 17 4.73478 17 5V21.5C17 21.7652 16.8946 22.0196 16.7071 22.2071C16.5196 22.3946 16.2652 22.5 16 22.5H2C1.73478 22.5 1.48043 22.3946 1.29289 22.2071C1.10536 22.0196 1 21.7652 1 21.5V5C1 4.73478 1.10536 4.48043 1.29289 4.29289C1.48043 4.10536 1.73478 4 2 4H5.5V5.5H12.5V4H13.525Z" stroke="currentColor" stroke-width="2" stroke-linejoin="round"/>
<path d="M12.5 5.5V3.5C12.5 2.39543 11.6046 1.5 10.5 1.5H7.5C6.39543 1.5 5.5 2.39543 5.5 3.5V5.5M10.75 10.75H5.5M12.5 15H5.5" stroke="currentColor" stroke-width="2" stroke-linecap="round" stroke-linejoin="round"/>
</svg>
